<?xml version="1.0" standalone="no"?><!DOCTYPE svg PUBLIC "-//W3C//DTD SVG 1.1//EN" "http://www.w3.org/Graphics/SVG/1.1/DTD/svg11.dtd"><svg t="1764927750862" class="icon" viewBox="0 0 1024 1024" version="1.1" xmlns="http://www.w3.org/2000/svg" p-id="30354" xmlns:xlink="http://www.w3.org/1999/xlink" width="200" height="200"><path d="M384.6656 344.3712H257.792a28.16 28.16 0 0 0 0 56.32h126.8736a28.16 28.16 0 0 0 0-56.32zM384.6656 507.136H257.792a28.16 28.16 0 0 0 0 56.32h126.8736a28.16 28.16 0 0 0 0-56.32zM790.4256 457.5232h-100.8128a28.16 28.16 0 0 0 0 56.32h100.8128a28.16 28.16 0 0 0 0-56.32zM790.4256 586.24h-100.8128a28.16 28.16 0 0 0 0 56.32h100.8128a28.16 28.16 0 0 0 0-56.32zM384.6656 647.2192H257.792a28.16 28.16 0 1 0 0 56.32h126.8736a28.16 28.16 0 0 0 0-56.32z" fill="#3498DB" p-id="30355"></path><path d="M928.512 828.4672h-21.9136V322.56a83.1488 83.1488 0 0 0-32.768-66.56 79.104 79.104 0 0 0-69.3248-13.5168l-178.0224 49.0496a82.944 82.944 0 0 0-60.0064 80.1792v456.7552H532.48V267.6736A94.7712 94.7712 0 0 0 461.8752 176.128L237.8752 116.7872a94.72 94.72 0 0 0-118.9888 91.5456v620.1344h-13.8752a28.16 28.16 0 1 0 0 56.32h823.5008a28.16 28.16 0 0 0 0-56.32zM175.2064 208.3328a38.4512 38.4512 0 0 1 48.2304-37.12L447.488 230.4a38.4 38.4 0 0 1 28.672 37.2736v558.592H175.2064z m447.5904 620.1344V371.712a26.5216 26.5216 0 0 1 18.6368-26.0096l178.0224-49.1008a22.9376 22.9376 0 0 1 20.224 4.0448 27.2384 27.2384 0 0 1 10.5984 22.016v505.8048z" fill="#3498DB" p-id="30356"></path></svg>