<?xml version="1.0" standalone="no"?><!DOCTYPE svg PUBLIC "-//W3C//DTD SVG 1.1//EN" "http://www.w3.org/Graphics/SVG/1.1/DTD/svg11.dtd"><svg t="1763794731810" class="icon" viewBox="0 0 1024 1024" version="1.1" xmlns="http://www.w3.org/2000/svg" p-id="5621" xmlns:xlink="http://www.w3.org/1999/xlink" width="200" height="200"><path d="M873.6 148.8c-96-96-224-148.8-360-148.8C235.2 0 6.4 227.2 6.4 507.2c0 89.6 24 176 67.2 254.4L1.6 1024 272 953.6c73.6 40 156.8 62.4 243.2 62.4 280-1.6 507.2-228.8 507.2-508.8 0-134.4-54.4-262.4-148.8-358.4zM513.6 929.6c-75.2 0-150.4-20.8-216-59.2l-16-9.6-160 41.6 43.2-155.2-9.6-16c-41.6-67.2-64-145.6-64-224 0-232 188.8-420.8 422.4-420.8 112 0 219.2 44.8 297.6 123.2s123.2 185.6 123.2 299.2c1.6 232-187.2 420.8-420.8 420.8z m232-315.2c-12.8-6.4-75.2-36.8-88-40-11.2-4.8-20.8-6.4-28.8 6.4s-33.6 40-40 49.6c-8 8-14.4 9.6-27.2 3.2-12.8-6.4-52.8-19.2-102.4-64-36.8-33.6-64-75.2-70.4-88-8-12.8-1.6-19.2 6.4-25.6 6.4-6.4 12.8-14.4 19.2-22.4 6.4-8 8-12.8 12.8-20.8 4.8-8 1.6-16-1.6-22.4s-28.8-68.8-40-94.4c-9.6-25.6-20.8-20.8-28.8-20.8h-24c-8 0-22.4 3.2-33.6 16-11.2 12.8-44.8 43.2-44.8 105.6s44.8 121.6 52.8 131.2c6.4 8 89.6 137.6 216 192 30.4 12.8 54.4 20.8 72 27.2 30.4 9.6 57.6 8 80 4.8 25.6-3.2 75.2-30.4 86.4-60.8 9.6-28.8 9.6-56 8-60.8-3.2-8-11.2-11.2-24-16z" p-id="5622" fill="#ffffff"></path></svg>